<?xml version="1.0" encoding="UTF-8" standalone="no"?>
<svg
   xmlns:dc="http://purl.org/dc/elements/1.1/"
   xmlns:cc="http://creativecommons.org/ns#"
   xmlns:rdf="http://www.w3.org/1999/02/22-rdf-syntax-ns#"
   xmlns:svg="http://www.w3.org/2000/svg"
   xmlns="http://www.w3.org/2000/svg"
   xmlns:sodipodi="http://sodipodi.sourceforge.net/DTD/sodipodi-0.dtd"
   xmlns:inkscape="http://www.inkscape.org/namespaces/inkscape"
   inkscape:version="1.0 (4035a4f, 2020-05-01)"
   sodipodi:docname="github.svg"
   id="svg119"
   version="1.1"
   viewBox="0 0 496 512"
   role="img"
   class="svg-inline--fa fa-github fa-w-16"
   data-icon="github"
   data-prefix="fab"
   focusable="false"
   aria-hidden="true">
  <metadata
     id="metadata125">
    <rdf:RDF>
      <cc:Work
         rdf:about="">
        <dc:format>image/svg+xml</dc:format>
        <dc:type
           rdf:resource="http://purl.org/dc/dcmitype/StillImage" />
      </cc:Work>
    </rdf:RDF>
  </metadata>
  <defs
     id="defs123" />
  <sodipodi:namedview
     inkscape:current-layer="svg119"
     inkscape:window-maximized="0"
     inkscape:window-y="30"
     inkscape:window-x="0"
     inkscape:cy="256"
     inkscape:cx="248"
     inkscape:zoom="0.72070312"
     showgrid="false"
     id="namedview121"
     inkscape:window-height="480"
     inkscape:window-width="759"
     inkscape:pageshadow="2"
     inkscape:pageopacity="0"
     guidetolerance="10"
     gridtolerance="10"
     objecttolerance="10"
     borderopacity="1"
     bordercolor="#666666"
     pagecolor="#ffffff" />
  <path
     style="fill:#ffffff;stroke-width:0.999999"
     id="path117"
     d="m 165.9,397.4 c 0,2 -2.3,3.6 -5.2,3.6 -3.3,0.3 -5.6,-1.3 -5.6,-3.6 0,-2 2.3,-3.6 5.2,-3.6 3,-0.3 5.6,1.3 5.6,3.6 z m -31.1,-4.5 c -0.7,2 1.3,4.3 4.3,4.9 2.6,1 5.6,0 6.2,-2 0.6,-2 -1.3,-4.3 -4.3,-5.2 -2.6,-0.7 -5.5,0.3 -6.2,2.3 z m 44.2,-1.7 c -2.9,0.7 -4.9,2.6 -4.6,4.9 0.3,2 2.9,3.3 5.9,2.6 2.9,-0.7 4.9,-2.6 4.6,-4.6 -0.3,-1.9 -3,-3.2 -5.9,-2.9 z M 244.8,8 C 106.1,8 0,113.3 0,252 c 0,110.9 69.800002,205.8 169.5,239.2 12.8,2.3 17.3,-5.6 17.3,-12.1 0,-6.2 -0.3,-40.4 -0.3,-61.4 0,0 -70,15 -84.7,-29.8 0,0 -11.400002,-29.1 -27.799999,-36.6 0,0 -22.900003,-15.7 1.599997,-15.4 0,0 24.900002,2 38.600002,25.8 21.9,38.6 58.6,27.5 72.9,20.9 2.3,-16 8.8,-27.1 16,-33.7 -55.9,-6.2 -112.299998,-14.3 -112.299998,-110.5 0,-27.5 7.6,-41.3 23.599998,-58.9 -2.6,-6.5 -11.1,-33.3 2.6,-67.9 20.9,-6.5 69,27 69,27 20,-5.6 41.5,-8.5 62.8,-8.5 21.3,0 42.8,2.9 62.8,8.5 0,0 48.1,-33.6 69,-27 13.7,34.7 5.2,61.4 2.6,67.9 16,17.7 25.8,31.5 25.8,58.9 0,96.5 -58.9,104.2 -114.8,110.5 9.2,7.9 17,22.9 17,46.4 0,33.7 -0.3,75.4 -0.3,83.6 0,6.5 4.6,14.4 17.3,12.1 C 428.2,457.8 496,362.9 496,252 496,113.3 383.5,8 244.8,8 Z M 97.199999,352.9 c -1.300001,1 -1,3.3 0.7,5.2 1.600002,1.6 3.900001,2.3 5.200001,1 1.3,-1 1,-3.3 -0.7,-5.2 -1.6,-1.6 -3.9,-2.3 -5.200001,-1 z m -10.799998,-8.1 c -0.7,1.3 0.3,2.9 2.300001,3.9 1.599997,1 3.599998,0.7 4.299998,-0.7 0.7,-1.3 -0.300001,-2.9 -2.300002,-3.9 -1.999996,-0.6 -3.599997,-0.3 -4.299997,0.7 z M 118.8,380.4 c -1.6,1.3 -1,4.3 1.3,6.2 2.3,2.3 5.2,2.6 6.5,1 1.3,-1.3 0.7,-4.3 -1.3,-6.2 -2.2,-2.3 -5.2,-2.6 -6.5,-1 z m -11.4,-14.7 c -1.6,1 -1.6,3.6 0,5.9 1.6,2.3 4.3,3.3 5.6,2.3 1.6,-1.3 1.6,-3.9 0,-6.2 -1.4,-2.3 -4,-3.3 -5.6,-2 z"
     fill="currentColor" />
</svg>
